<svg viewBox="0 0 64 64" xmlns="http://www.w3.org/2000/svg">
  <defs><linearGradient id="g" x1="0" y1="0" x2="1" y2="1"><stop offset="0" stop-color="#4BF7B4"/><stop offset="1" stop-color="#0FB6A8"/></linearGradient></defs>
  <rect width="64" height="64" rx="14" fill="#06090C"/>
  <g transform="translate(7 7) scale(0.5)">
    <circle cx="50" cy="50" r="42" fill="url(#g)"/>
    <g fill="#06090C">
      <rect x="33.4" y="24" width="2" height="16" rx="1"/>
      <rect x="36.7" y="24" width="2" height="16" rx="1"/>
      <rect x="40" y="24" width="2" height="16" rx="1"/>
      <path d="M33.4 33 h8.6 v2 a4.3 4.3 0 0 1 -4.3 4.3 a4.3 4.3 0 0 1 -4.3 -4.3 z"/>
      <rect x="36" y="38" width="3.4" height="38" rx="1.7"/>
      <path d="M49.2 24 c3.4 0 3.4 6 3.4 15 v9 h-3.4 z"/>
      <rect x="49.2" y="47" width="3.4" height="29" rx="1.7"/>
      <ellipse cx="63.4" cy="33" rx="5.4" ry="8.4"/>
      <rect x="61.7" y="40" width="3.4" height="36" rx="1.7"/>
    </g>
  </g>
</svg>
